<svg width="100" height="101" viewBox="0 0 100 101" fill="none" xmlns="http://www.w3.org/2000/svg">
<path d="M83.5906 78.258C88.0785 72.8584 91.1999 66.4572 92.6907 59.5961C94.1815 52.735 93.9978 45.6157 92.1553 38.8406C90.3127 32.0654 86.8655 25.8337 82.1052 20.6726C77.3449 15.5115 71.4115 11.5729 64.8071 9.18986C58.2026 6.80682 51.1214 6.04953 44.1624 6.98203C37.2034 7.91453 30.5713 10.5094 24.8272 14.5471C19.0832 18.5848 14.3961 23.9466 11.1625 30.1789C7.92887 36.4112 6.24387 43.3306 6.25002 50.3518C6.25238 60.5586 9.84922 70.4386 16.4094 78.258L16.3469 78.3112C16.5656 78.5737 16.8156 78.7987 17.0406 79.058C17.3219 79.3799 17.625 79.683 17.9156 79.9955C18.7906 80.9455 19.6906 81.858 20.6344 82.7143C20.9219 82.9768 21.2188 83.2205 21.5094 83.4705C22.5094 84.333 23.5375 85.1518 24.6031 85.9143C24.7406 86.008 24.8656 86.1299 25.0031 86.2268V86.1893C32.3222 91.3398 41.0535 94.104 50.0031 94.104C58.9528 94.104 67.6841 91.3398 75.0031 86.1893V86.2268C75.1406 86.1299 75.2625 86.008 75.4031 85.9143C76.4656 85.1487 77.4969 84.333 78.4969 83.4705C78.7875 83.2205 79.0844 82.9737 79.3719 82.7143C80.3156 81.8549 81.2156 80.9455 82.0906 79.9955C82.3813 79.683 82.6813 79.3799 82.9656 79.058C83.1875 78.7987 83.4406 78.5736 83.6594 78.308L83.5906 78.258ZM50 25.3518C52.7813 25.3518 55.5002 26.1765 57.8127 27.7217C60.1253 29.2669 61.9277 31.4632 62.9921 34.0328C64.0564 36.6024 64.3349 39.4299 63.7923 42.1577C63.2497 44.8856 61.9104 47.3913 59.9437 49.358C57.977 51.3246 55.4713 52.664 52.7435 53.2066C50.0156 53.7492 47.1881 53.4707 44.6185 52.4063C42.0489 51.342 39.8527 49.5395 38.3075 47.227C36.7623 44.9144 35.9375 42.1956 35.9375 39.4143C35.9375 35.6847 37.4191 32.1078 40.0563 29.4706C42.6936 26.8334 46.2704 25.3518 50 25.3518ZM25.0219 78.258C25.0761 74.1548 26.7436 70.2379 29.6636 67.3547C32.5837 64.4715 36.5214 62.8539 40.625 62.8518H59.375C63.4786 62.8539 67.4164 64.4715 70.3364 67.3547C73.2564 70.2379 74.9239 74.1548 74.9781 78.258C68.1245 84.4341 59.2258 87.852 50 87.852C40.7742 87.852 31.8755 84.4341 25.0219 78.258Z" fill="black" fill-opacity="0.4"/>
</svg>
